{
	"asset":{
		"generator":"Khronos glTF Blender I/O v4.3.47",
		"version":"2.0"
	},
	"extensionsUsed":[
		"KHR_materials_specular",
		"KHR_materials_ior"
	],
	"scene":0,
	"scenes":[
		{
			"name":"Scene",
			"nodes":[
				4
			]
		}
	],
	"nodes":[
		{
			"mesh":0,
			"name":"Object_4",
			"translation":[
				0,
				0.030000001192092896,
				0
			]
		},
		{
			"children":[
				0
			],
			"name":"Cube.008_0"
		},
		{
			"children":[
				1
			],
			"name":"GLTF_SceneRootNode",
			"rotation":[
				0.70710688829422,
				0,
				0,
				0.7071066498756409
			]
		},
		{
			"children":[
				2
			],
			"name":"root"
		},
		{
			"children":[
				3
			],
			"name":"Sketchfab_model",
			"rotation":[
				-0.70710688829422,
				0,
				0,
				0.7071066498756409
			]
		}
	],
	"materials":[
		{
			"extensions":{
				"KHR_materials_specular":{
					"specularColorFactor":[
						0.013910060748457909,
						0.013910060748457909,
						0.013910060748457909
					],
					"specularColorTexture":{
						"index":0
					}
				},
				"KHR_materials_ior":{
					"ior":1000
				}
			},
			"name":"Walnut",
			"normalTexture":{
				"index":1
			},
			"pbrMetallicRoughness":{
				"baseColorTexture":{
					"index":2
				},
				"metallicFactor":0,
				"metallicRoughnessTexture":{
					"index":3
				}
			}
		}
	],
	"meshes":[
		{
			"name":"Object_0",
			"primitives":[
				{
					"attributes":{
						"POSITION":0,
						"NORMAL":1,
						"TEXCOORD_0":2
					},
					"indices":3,
					"material":0
				}
			]
		}
	],
	"textures":[
		{
			"sampler":0,
			"source":0
		},
		{
			"sampler":0,
			"source":1
		},
		{
			"sampler":0,
			"source":2
		},
		{
			"sampler":0,
			"source":3
		}
	],
	"images":[
		{
			"mimeType":"image/jpeg",
			"name":"Walnut_specularGlossiness",
			"uri":"Walnut_specularGlossiness.jpg"
		},
		{
			"mimeType":"image/jpeg",
			"name":"Walnut_normal",
			"uri":"Walnut_normal.jpg"
		},
		{
			"mimeType":"image/jpeg",
			"name":"Walnut_diffuse",
			"uri":"Walnut_diffuse.jpg"
		},
		{
			"mimeType":"image/png",
			"name":"Walnut_specularGlossiness",
			"uri":"Walnut_specularGlossiness.png"
		}
	],
	"accessors":[
		{
			"bufferView":0,
			"componentType":5126,
			"count":957,
			"max":[
				0.5333880186080933,
				0.7197802066802979,
				1.0667974948883057
			],
			"min":[
				-0.5334119200706482,
				-0.048569828271865845,
				-1.0668025016784668
			],
			"type":"VEC3"
		},
		{
			"bufferView":1,
			"componentType":5126,
			"count":957,
			"type":"VEC3"
		},
		{
			"bufferView":2,
			"componentType":5126,
			"count":957,
			"type":"VEC2"
		},
		{
			"bufferView":3,
			"componentType":5123,
			"count":3492,
			"type":"SCALAR"
		}
	],
	"bufferViews":[
		{
			"buffer":0,
			"byteLength":11484,
			"byteOffset":0,
			"target":34962
		},
		{
			"buffer":0,
			"byteLength":11484,
			"byteOffset":11484,
			"target":34962
		},
		{
			"buffer":0,
			"byteLength":7656,
			"byteOffset":22968,
			"target":34962
		},
		{
			"buffer":0,
			"byteLength":6984,
			"byteOffset":30624,
			"target":34963
		}
	],
	"samplers":[
		{
			"magFilter":9729,
			"minFilter":9987
		}
	],
	"buffers":[
		{
			"byteLength":37608,
			"uri":"for_real_table.bin"
		}
	]
}
